<svg width="73" height="73" viewBox="0 0 73 73" fill="none" xmlns="http://www.w3.org/2000/svg">
<path d="M72.2369 22.256C71.9324 22.8458 71.4266 23.0579 70.6937 22.9855C70.6937 23.2959 70.6937 23.5702 70.6937 23.8392C70.6937 33.5663 70.6937 43.2986 70.6937 53.0257C70.6937 53.2844 70.7247 53.5483 70.673 53.7967C70.5543 54.371 70.1982 54.7073 69.5944 54.6814C69.0215 54.6556 68.7067 54.3141 68.6138 53.7656C68.5777 53.538 68.5983 53.3 68.5983 53.0671C68.5983 43.34 68.5983 33.6077 68.5983 23.8806C68.5983 23.6064 68.5983 23.3322 68.5983 23.0269C65.8216 23.0269 63.1275 23.0269 60.3767 23.0269C60.3767 38.7041 60.3767 54.3606 60.3767 70.0637C63.0759 70.0637 65.7907 70.0637 68.5983 70.0637C68.5983 69.8206 68.5983 69.5722 68.5983 69.3239C68.5983 65.909 68.5983 62.4942 68.5983 59.0793C68.5983 58.8672 68.5777 58.6551 68.6189 58.4481C68.7222 57.8945 69.0679 57.5737 69.6305 57.5582C70.1931 57.5478 70.544 57.8634 70.673 58.4119C70.7143 58.593 70.6988 58.7844 70.6988 58.9707C70.6988 62.8977 70.6988 66.83 70.6988 70.757C70.6988 71.885 70.3685 72.2161 69.2383 72.2161C47.3553 72.2161 25.4724 72.2161 3.58941 72.2161C2.423 72.2161 2.11335 71.8953 2.11335 70.7105C2.11335 66.83 2.11335 62.9443 2.11335 59.0638C2.11335 58.8775 2.09781 58.6861 2.12362 58.505C2.21652 57.9152 2.56747 57.5633 3.161 57.5633C3.74936 57.5633 4.11064 57.91 4.19838 58.4998C4.22935 58.7275 4.21388 58.9655 4.21388 59.1983C4.21388 62.7994 4.21388 66.4005 4.21388 70.0586C6.95441 70.0586 9.66916 70.0586 12.4355 70.0586C12.4355 54.4176 12.4355 38.761 12.4355 23.0476C9.73625 23.0476 7.0215 23.0476 4.21388 23.0476C4.21388 23.3166 4.21388 23.5909 4.21388 23.8599C4.21388 33.587 4.21388 43.3193 4.21388 53.0464C4.21388 53.2793 4.23451 53.5173 4.19838 53.7449C4.11064 54.3296 3.77001 54.6814 3.16616 54.6814C2.56232 54.6866 2.22168 54.3296 2.12878 53.7501C2.09266 53.5225 2.11335 53.2844 2.11335 53.0516C2.11335 43.3452 2.11335 33.6388 2.11335 23.9323C2.11335 23.653 2.11335 23.3736 2.11335 23.0528C1.92755 23.0269 1.77784 22.9907 1.62301 22.9803C0.952068 22.9338 0.590782 22.5561 0.58046 21.899C0.559816 20.5175 0.554655 19.1412 0.58046 17.7598C0.595944 16.9992 0.967584 16.7353 2.10818 16.6111C1.88626 12.7617 3.46552 10.1436 7.43955 9.08815C7.43955 8.60179 7.42923 8.05335 7.43955 7.49973C7.45503 6.74432 7.86794 6.26831 8.49243 6.26314C9.11176 6.26314 9.52465 6.73915 9.53498 7.49455C9.5453 8.03265 9.53498 8.57074 9.53498 9.13471C13.2509 10.2316 14.8353 12.7876 14.5773 16.5542C16.0637 16.8854 16.1204 16.9526 16.1204 18.479C16.1204 19.3896 16.1204 20.3054 16.1204 21.216C16.1204 22.7113 16.0431 22.8096 14.6186 23.0631C14.6186 26.7418 14.6186 30.4257 14.6186 34.1769C15.4186 34.1769 16.2185 34.1769 17.1062 34.1769C17.1062 33.3697 17.1062 32.5574 17.1062 31.7451C17.1062 30.3067 17.3333 30.0635 18.7423 30.017C18.8765 30.0118 19.0107 29.9911 19.212 29.9704C19.212 28.9408 19.2017 27.9422 19.212 26.9384C19.2842 21.8886 21.1164 17.5994 24.8221 14.1638C27.5987 11.5975 30.8915 10.1281 34.659 9.72455C34.8965 9.69868 35.2732 9.50724 35.3145 9.33132C35.4074 8.93292 35.4539 8.519 34.8655 8.26548C33.214 7.54629 32.414 6.03031 32.6101 4.22976C32.7804 2.67756 33.9985 1.34267 35.5829 0.980488C36.3055 0.81492 36.8576 1.09431 37.0228 1.71519C37.188 2.32055 36.8474 2.80691 36.099 3.02422C35.1132 3.31396 34.6178 3.97623 34.69 4.91273C34.7571 5.75092 35.4332 6.43388 36.2796 6.50632C37.1209 6.57875 37.8331 6.04066 38.1169 5.10934C38.3647 4.30737 38.8292 3.97623 39.4743 4.14698C40.0782 4.30737 40.3569 4.90238 40.1504 5.694C39.8253 6.92541 39.0821 7.83604 37.9054 8.29652C37.3222 8.52418 37.4099 8.94327 37.4873 9.31063C37.5234 9.49172 37.8899 9.69867 38.1221 9.71937C46.7308 10.5834 53.3267 17.7287 53.5796 26.4935C53.6105 27.6318 53.5847 28.7752 53.5847 29.9601C53.8531 29.9808 54.0544 30.0015 54.2556 30.0066C55.3704 30.0377 55.6904 30.3688 55.6956 31.5071C55.7008 32.3918 55.6956 33.2714 55.6956 34.1924C56.5575 34.1924 57.342 34.1924 58.1729 34.1924C58.1729 30.4671 58.1729 26.7625 58.1729 23.0631C56.7278 22.763 56.6814 22.7061 56.6814 21.2263C56.6814 20.2899 56.6814 19.3534 56.6814 18.422C56.6814 16.9526 56.7743 16.8336 58.2349 16.5646C58.142 14.9244 58.2761 13.3101 59.2516 11.8873C60.2167 10.4696 61.538 9.57968 63.2721 9.18128C63.2721 8.59662 63.2618 8.0223 63.2721 7.44281C63.2876 6.73398 63.6953 6.27349 64.294 6.26314C64.8926 6.25279 65.3313 6.71328 65.3623 7.4066C65.3778 7.68599 65.3674 7.96539 65.3674 8.24996C65.3674 8.52935 65.3674 8.80358 65.3674 9.08815C69.3053 10.0867 70.9156 12.7151 70.7091 16.3628C71.313 16.7508 71.7724 17.0406 72.2317 17.3355C72.2369 18.9808 72.2369 20.621 72.2369 22.256ZM19.2429 34.2441C19.5526 34.2441 19.821 34.2441 20.0945 34.2441C24.5279 34.2441 28.9613 34.2441 33.3946 34.2441C34.4526 34.2441 34.979 34.6011 34.979 35.2996C34.979 36.0033 34.463 36.3448 33.3946 36.3448C27.4233 36.3448 21.4518 36.3448 15.4753 36.3448C15.2018 36.3448 14.9283 36.3448 14.629 36.3448C14.629 47.6396 14.629 58.8465 14.629 70.0534C19.0262 70.0534 23.377 70.0534 27.769 70.0534C27.769 69.7223 27.769 69.4429 27.769 69.1635C27.769 65.4692 27.7587 61.775 27.7742 58.0756C27.7794 57.284 27.8051 56.4768 27.9393 55.7007C28.7651 50.9613 31.6604 47.8207 35.7996 45.6994C36.1351 45.5286 36.7132 45.539 37.0435 45.7149C41.9929 48.3278 45.0225 52.2186 45.0328 58.0497C45.0431 61.7698 45.0328 65.4847 45.0328 69.2048C45.0328 69.4791 45.0328 69.7533 45.0328 70.0637C49.4558 70.0637 53.8015 70.0637 58.1678 70.0637C58.1678 58.8206 58.1678 47.6137 58.1678 36.3448C57.8375 36.3448 57.5639 36.3448 57.2852 36.3448C51.3345 36.3448 45.3889 36.3448 39.4382 36.3448C38.3079 36.3448 37.7918 36.0085 37.8073 35.2789C37.8228 34.5597 38.3285 34.239 39.4743 34.239C43.8819 34.239 48.2946 34.239 52.7021 34.239C52.9757 34.239 53.2441 34.239 53.5537 34.239C53.5537 33.4991 53.5537 32.8575 53.5537 32.1694C42.1065 32.1694 30.6902 32.1694 19.2378 32.1694C19.2429 32.8627 19.2429 33.5042 19.2429 34.2441ZM51.3654 25.7639C51.1951 19.2344 45.3166 11.4785 35.9287 11.7734C26.4426 12.0684 21.4416 20.2174 21.4622 25.7639C31.4128 25.7639 41.3581 25.7639 51.3654 25.7639ZM42.9323 70.0844C42.9323 69.774 42.9323 69.5205 42.9323 69.2669C42.9323 65.5727 42.9013 61.8785 42.9374 58.1842C42.9839 53.5069 40.6614 50.2835 36.8112 47.9759C36.6048 47.8517 36.2022 47.8466 36.0009 47.9656C32.1456 50.2577 29.8077 53.4707 29.8541 58.1532C29.8954 61.8474 29.8644 65.5417 29.8644 69.2359C29.8644 69.5101 29.8644 69.7843 29.8644 70.0793C34.2461 70.0844 38.535 70.0844 42.9323 70.0844ZM21.3486 29.9756C31.3972 29.9756 41.4098 29.9756 51.4584 29.9756C51.4584 29.2823 51.4584 28.6407 51.4584 27.9577C41.4098 27.9577 31.3972 27.9577 21.3486 27.9577C21.3486 28.6459 21.3486 29.2874 21.3486 29.9756ZM68.5364 16.6318C68.7944 14.3087 68.1441 12.6892 66.5597 11.7786C65.0423 10.9094 63.5146 10.956 62.0798 11.9545C60.4489 13.0928 60.1496 14.7537 60.3767 16.6267C63.1017 16.6318 65.801 16.6318 68.5364 16.6318ZM12.4303 16.6318C12.6626 14.5519 12.2497 12.8031 10.3711 11.7372C8.84855 10.8732 7.31569 10.9818 5.90156 12.0063C4.32227 13.1549 4.04354 14.8002 4.25514 16.6318C6.99567 16.6318 9.6898 16.6318 12.4303 16.6318ZM2.70165 18.7997C2.70165 19.5241 2.70165 20.1709 2.70165 20.8383C6.47956 20.8383 10.2162 20.8383 13.9632 20.8383C13.9632 20.1346 13.9632 19.4724 13.9632 18.7997C10.1904 18.7997 6.46924 18.7997 2.70165 18.7997ZM70.1002 18.8153C66.3068 18.8153 62.5701 18.8153 58.8387 18.8153C58.8387 19.5293 58.8387 20.1915 58.8387 20.8435C62.6166 20.8435 66.3429 20.8435 70.1002 20.8435C70.1002 20.1657 70.1002 19.5189 70.1002 18.8153Z" fill="url(#paint0_linear_474_1888)"/>
<path d="M9.39034 27.6578C9.39034 28.1027 9.41098 28.5477 9.38518 28.9875C9.34905 29.6032 8.94134 30.0016 8.36846 30.0119C7.80074 30.0223 7.33622 29.6342 7.31042 29.0237C7.27429 28.0458 7.27429 27.0627 7.31558 26.0849C7.34139 25.495 7.85748 25.0708 8.39939 25.1277C8.9826 25.1898 9.32841 25.5209 9.38518 26.1211C9.39034 26.1676 9.39034 26.2142 9.39034 26.2608C9.39034 26.7213 9.39034 27.1921 9.39034 27.6578Z" fill="url(#paint1_linear_474_1888)"/>
<path d="M63.4113 27.5801C63.4113 27.1144 63.3959 26.6436 63.4165 26.178C63.4423 25.5571 63.8449 25.1432 64.4074 25.1173C64.9803 25.0862 65.4758 25.5209 65.4964 26.1573C65.5274 27.0886 65.5274 28.0251 65.4964 28.9564C65.4758 29.6083 65.0216 30.0171 64.4281 30.0067C63.8294 29.9964 63.4475 29.5824 63.4113 28.9098C63.4113 28.8633 63.4113 28.8167 63.4113 28.7701C63.4113 28.3769 63.4113 27.9785 63.4113 27.5801Z" fill="url(#paint2_linear_474_1888)"/>
<path d="M8.34783 42.2899C8.83813 42.2899 9.32841 42.264 9.81355 42.2951C10.4071 42.3365 10.758 42.6883 10.7787 43.2885C10.7993 43.8887 10.4587 44.3026 9.87548 44.3388C8.85359 44.3957 7.82657 44.3957 6.80984 44.3388C6.22664 44.3078 5.886 43.8783 5.90665 43.2833C5.93245 42.6986 6.27825 42.3313 6.8821 42.2951C7.3724 42.264 7.86269 42.2899 8.34783 42.2899Z" fill="url(#paint3_linear_474_1888)"/>
<path d="M64.3919 44.3647C63.9274 44.3647 63.4578 44.4009 62.9984 44.3543C62.3739 44.2923 62.0023 43.8628 62.0178 43.2885C62.0333 42.7194 62.4204 42.3054 63.0552 42.2899C63.9842 42.264 64.9183 42.264 65.8473 42.2899C66.4667 42.3054 66.8847 42.7297 66.9053 43.2781C66.926 43.8266 66.5337 44.2974 65.9247 44.3543C65.4189 44.4009 64.9028 44.3647 64.3919 44.3647Z" fill="url(#paint4_linear_474_1888)"/>
<path d="M9.39035 34.9065C9.39035 35.3722 9.41099 35.843 9.38518 36.3035C9.34905 36.9192 8.93102 37.3176 8.3633 37.3228C7.80074 37.328 7.33623 36.9347 7.31042 36.3294C7.27429 35.3722 7.27429 34.415 7.31042 33.463C7.33107 32.8524 7.78007 32.4437 8.33747 32.4385C8.92583 32.4333 9.35938 32.8576 9.39035 33.5095C9.40583 33.97 9.39035 34.4357 9.39035 34.9065Z" fill="url(#paint5_linear_474_1888)"/>
<path d="M65.5066 34.86C65.5066 35.3256 65.5273 35.7965 65.5015 36.2569C65.4653 36.9089 65.0318 37.328 64.4434 37.3228C63.8499 37.3176 63.4318 36.8985 63.4164 36.2362C63.3957 35.3256 63.3957 34.415 63.4164 33.5095C63.4318 32.8576 63.8757 32.4333 64.4641 32.4385C65.0215 32.4437 65.4344 32.8576 65.5015 33.463C65.5066 33.5095 65.5066 33.5561 65.5066 33.6027C65.5066 34.0166 65.5066 34.4409 65.5066 34.86Z" fill="url(#paint6_linear_474_1888)"/>
<path d="M36.326 41.8446C30.5869 41.8446 24.8529 41.8446 19.1138 41.8446C18.928 41.8446 18.7423 41.8446 18.5565 41.8446C17.6223 41.8342 17.1113 41.4617 17.1165 40.7891C17.1165 40.1165 17.6223 39.7388 18.5616 39.7388C30.4527 39.7388 42.349 39.7388 54.2401 39.7388C54.4466 39.7388 54.6633 39.7439 54.8646 39.7853C55.391 39.9043 55.7368 40.2976 55.6439 40.7839C55.5768 41.1461 55.231 41.5186 54.911 41.7566C54.7046 41.9067 54.3278 41.8394 54.0233 41.8394C48.1294 41.8446 42.2303 41.8446 36.326 41.8446Z" fill="url(#paint7_linear_474_1888)"/>
<path d="M25.2245 59.0688C25.2245 60.1916 25.2348 61.3092 25.2193 62.4319C25.209 63.2442 24.8322 63.6323 24.0116 63.6375C21.7511 63.6478 19.4905 63.653 17.23 63.6375C16.4558 63.6323 16.0533 63.2494 16.0481 62.4733C16.0378 60.233 15.9655 57.9823 16.0894 55.7471C16.2391 53.0566 17.839 51.3027 20.1512 50.154C20.4453 50.0092 20.9615 50.0557 21.266 50.2213C23.7485 51.551 25.2503 53.5378 25.2193 56.4818C25.2142 57.3407 25.2245 58.2048 25.2245 59.0688ZM18.1383 61.4903C19.8415 61.4903 21.4569 61.4903 23.1188 61.4903C23.1188 59.7673 23.1033 58.0858 23.124 56.4094C23.1446 54.7123 22.3549 53.4861 21.044 52.503C20.7189 52.2598 20.4918 52.2961 20.1873 52.5237C18.9022 53.4913 18.1177 54.7123 18.1332 56.3732C18.1435 57.5891 18.1332 58.7998 18.1332 60.0157C18.1383 60.502 18.1383 60.9832 18.1383 61.4903Z" fill="url(#paint8_linear_474_1888)"/>
<path d="M47.5824 59.0536C47.5824 58.0706 47.5566 57.0927 47.5875 56.1096C47.6804 53.2587 49.2442 51.3857 51.675 50.1595C51.9692 50.0095 52.4854 50.056 52.7899 50.2164C55.231 51.5099 56.7329 53.4502 56.7536 56.3269C56.7691 58.3137 56.7639 60.3005 56.7536 62.2822C56.7484 63.2808 56.3871 63.6378 55.4065 63.6429C53.2388 63.6481 51.0712 63.6481 48.9036 63.6429C47.923 63.6378 47.5772 63.2808 47.572 62.277C47.572 61.2008 47.5772 60.1298 47.5824 59.0536C47.5772 59.0536 47.5772 59.0536 47.5824 59.0536ZM54.6375 61.5009C54.6375 59.6227 54.6788 57.786 54.6272 55.9492C54.5859 54.397 53.6982 53.3001 52.475 52.4619C52.3357 52.3636 52.0105 52.3585 51.8712 52.4568C50.5499 53.357 49.6932 54.5471 49.6829 56.2183C49.6777 57.8274 49.6777 59.4417 49.6829 61.0508C49.6829 61.206 49.7242 61.356 49.7448 61.5061C51.386 61.5009 52.986 61.5009 54.6375 61.5009Z" fill="url(#paint9_linear_474_1888)"/>
<defs>
<linearGradient id="paint0_linear_474_1888" x1="0.5561" y1="36.5799" x2="72.2362" y2="36.5799" gradientUnits="userSpaceOnUse">
<stop stop-color="#0072BB"/>
<stop offset="1" stop-color="#2E3192"/>
</linearGradient>
<linearGradient id="paint1_linear_474_1888" x1="7.28121" y1="27.5643" x2="9.39519" y2="27.5643" gradientUnits="userSpaceOnUse">
<stop stop-color="#0072BB"/>
<stop offset="1" stop-color="#2E3192"/>
</linearGradient>
<linearGradient id="paint2_linear_474_1888" x1="63.4059" y1="27.563" x2="65.5204" y2="27.563" gradientUnits="userSpaceOnUse">
<stop stop-color="#0072BB"/>
<stop offset="1" stop-color="#2E3192"/>
</linearGradient>
<linearGradient id="paint3_linear_474_1888" x1="5.90737" y1="43.3307" x2="10.7797" y2="43.3307" gradientUnits="userSpaceOnUse">
<stop stop-color="#0072BB"/>
<stop offset="1" stop-color="#2E3192"/>
</linearGradient>
<linearGradient id="paint4_linear_474_1888" x1="62.0138" y1="43.3259" x2="66.9042" y2="43.3259" gradientUnits="userSpaceOnUse">
<stop stop-color="#0072BB"/>
<stop offset="1" stop-color="#2E3192"/>
</linearGradient>
<linearGradient id="paint5_linear_474_1888" x1="7.28136" y1="34.8794" x2="9.39514" y2="34.8794" gradientUnits="userSpaceOnUse">
<stop stop-color="#0072BB"/>
<stop offset="1" stop-color="#2E3192"/>
</linearGradient>
<linearGradient id="paint6_linear_474_1888" x1="63.4014" y1="34.8793" x2="65.5138" y2="34.8793" gradientUnits="userSpaceOnUse">
<stop stop-color="#0072BB"/>
<stop offset="1" stop-color="#2E3192"/>
</linearGradient>
<linearGradient id="paint7_linear_474_1888" x1="17.1159" y1="40.7962" x2="55.6635" y2="40.7962" gradientUnits="userSpaceOnUse">
<stop stop-color="#0072BB"/>
<stop offset="1" stop-color="#2E3192"/>
</linearGradient>
<linearGradient id="paint8_linear_474_1888" x1="16.0215" y1="56.8573" x2="25.2265" y2="56.8573" gradientUnits="userSpaceOnUse">
<stop stop-color="#0072BB"/>
<stop offset="1" stop-color="#2E3192"/>
</linearGradient>
<linearGradient id="paint9_linear_474_1888" x1="47.5702" y1="56.8568" x2="56.7659" y2="56.8568" gradientUnits="userSpaceOnUse">
<stop stop-color="#0072BB"/>
<stop offset="1" stop-color="#2E3192"/>
</linearGradient>
</defs>
</svg>
