<svg width="54" height="55" viewBox="0 0 54 55" fill="none" xmlns="http://www.w3.org/2000/svg">
<path d="M10.4598 54.2442C9.81188 53.7067 9.78146 53.3749 10.3343 52.7307C12.2691 50.476 14.2058 48.2232 16.094 46.0252C15.6953 45.3354 15.3043 44.6899 14.9457 44.0262C14.6932 43.5596 14.8221 43.1133 15.224 42.9005C15.6195 42.691 16.105 42.8159 16.3024 43.2974C16.83 44.5852 17.9045 45.3653 18.882 46.2392C19.3467 46.655 19.9099 46.7878 20.5229 46.7585C21.6305 46.7051 22.738 46.6635 23.8456 46.6075C23.9951 46.5997 24.1634 46.5737 24.287 46.4969C25.95 45.4617 27.6064 44.416 29.2635 43.3703C29.305 43.3443 29.3335 43.2968 29.3652 43.2629C28.9956 42.1593 27.6582 41.6693 26.5267 42.2485C25.5862 42.7293 24.6696 43.2577 23.7407 43.7614C22.995 44.1654 22.6707 44.0796 22.2804 43.3241C21.6816 42.1645 20.5805 41.8047 19.449 41.5015C19.1014 41.4084 18.7305 41.4039 18.3706 41.357C17.8534 41.2906 17.5252 40.9529 17.5531 40.5183C17.5815 40.0738 17.9369 39.7673 18.4625 39.7999C20.398 39.9203 22.1185 40.5235 23.4423 42.1281C23.964 41.8476 24.5058 41.5561 25.1415 41.2139C24.6981 40.9822 24.3259 40.7837 23.9498 40.5931C21.8363 39.5207 19.5804 38.9442 17.2372 38.7165C16.1917 38.6149 15.3218 39.0522 14.5851 39.7953C11.7842 42.6207 8.9762 45.4382 6.17011 48.259C5.56488 48.8674 5.1454 48.9546 4.75766 48.5525C4.38675 48.1673 4.47416 47.7515 5.05091 47.1717C7.81945 44.3873 10.6029 41.6186 13.3501 38.8134C14.7159 37.419 16.3038 36.9452 18.2153 37.2355C21.2 37.6883 23.9886 38.641 26.5623 40.2332C26.719 40.3302 27.0264 40.3172 27.1986 40.228C28.3366 39.6392 29.4461 38.9924 30.586 38.408C32.1913 37.5849 34.1604 38.1523 34.9929 39.7211C35.2589 40.2228 35.6 40.5976 35.9742 40.9991C36.3334 41.385 36.5134 41.9374 36.7866 42.4085C36.8662 42.5465 36.9911 42.6591 37.1031 42.7768C37.4824 43.1751 37.9342 43.5245 38.2314 43.9767C38.7453 44.7602 38.5136 45.7245 37.7096 46.2015C35.3547 47.5986 32.9856 48.9722 30.6048 50.3237C30.3711 50.4565 29.9931 50.4539 29.7212 50.3764C27.642 49.783 25.5778 49.1362 23.496 48.5512C22.9076 48.3859 22.272 48.274 21.6674 48.3085C20.0633 48.4002 18.535 48.341 17.3679 46.9524C16.8565 47.5433 16.3911 48.0781 15.9289 48.6156C14.49 50.2886 13.0542 51.9648 11.6107 53.6338C11.4198 53.8544 11.1906 54.0412 10.979 54.2442C10.8061 54.2442 10.6327 54.2442 10.4598 54.2442ZM36.916 44.863C36.5853 44.0125 35.4007 43.5369 34.442 44.0691C33.4885 44.5982 32.4936 45.0608 31.5809 45.6523C30.6242 46.2724 29.6907 46.5106 28.6272 45.9907C28.4803 45.9191 28.2317 45.9022 28.0997 45.9796C27.2834 46.4611 26.4866 46.9765 25.6069 47.5289C27.084 47.9708 28.4712 48.3944 29.8662 48.7887C30.017 48.8316 30.2345 48.7366 30.3892 48.6494C31.2346 48.1744 32.0703 47.6832 32.9085 47.1958C34.2368 46.4234 35.5651 45.6491 36.916 44.863ZM34.8854 42.134C34.4155 41.5887 33.6562 41.4 32.9008 41.7552C32.3065 42.035 31.7363 42.3676 31.1621 42.6884C31.0695 42.7404 30.9653 42.8445 30.9452 42.9415C30.8533 43.3859 30.7892 43.8362 30.7167 44.2741C32.0761 43.5766 33.4775 42.8569 34.8854 42.134ZM30.096 41.4767C30.63 41.1872 31.1239 40.9009 31.6346 40.6464C32.1285 40.4011 32.6386 40.189 33.1487 39.9593C32.1661 39.3145 30.8313 39.6574 29.3684 40.9217C29.6027 41.1006 29.8358 41.2783 30.096 41.4767Z" fill="white"/>
<path d="M53.3008 43.7896C52.7681 44.4403 52.4341 44.4703 51.7939 43.9165C49.6144 42.0308 47.4362 40.1431 45.3298 38.3179C44.6308 38.7239 43.9847 39.1176 43.3206 39.4774C42.8694 39.7227 42.4092 39.5815 42.2034 39.182C42.0046 38.7974 42.1172 38.3127 42.5671 38.1285C43.8151 37.6177 44.5855 36.5811 45.4386 35.6278C45.8639 35.1528 46.0756 34.6023 46.0471 33.9581C45.9966 32.8096 45.9603 31.6605 45.9008 30.512C45.8917 30.3318 45.8218 30.1366 45.7266 29.9817C44.7628 28.4115 43.7789 26.8537 42.8228 25.2784C42.6066 24.9225 42.4267 24.9296 42.1334 25.1632C41.3217 25.81 41.0828 26.9182 41.591 27.8936C42.0965 28.8644 42.6351 29.8184 43.1458 30.7873C43.4183 31.3033 43.3536 31.7204 42.8824 31.9494C41.3359 32.7016 40.9495 34.1195 40.7055 35.6337C40.6776 35.8055 40.6744 35.9812 40.6479 36.153C40.5799 36.6 40.3048 36.8303 39.8679 36.8401C39.4536 36.8492 39.1027 36.5128 39.1241 36.0645C39.2173 34.1416 39.7481 32.3997 41.2699 31.0963C41.3217 31.0521 41.3728 31.0072 41.4525 30.9382C41.1651 30.402 40.8789 29.8698 40.5695 29.2932C40.4899 29.3889 40.4206 29.4514 40.3766 29.5288C39.0348 31.8961 38.3117 34.4598 38.045 37.1544C37.9408 38.204 38.3738 39.0831 39.1137 39.8242C41.8628 42.5793 44.6049 45.3416 47.3495 48.1012C47.9534 48.7083 48.0395 49.1339 47.6375 49.5217C47.253 49.8932 46.8407 49.8047 46.2626 49.2243C43.5912 46.5388 40.945 43.8274 38.2398 41.177C36.7549 39.7227 36.261 38.0537 36.5957 36.0118C37.074 33.0888 37.9893 30.3474 39.5371 27.82C39.6419 27.6489 39.6335 27.3138 39.5384 27.127C38.9629 25.9968 38.3253 24.8977 37.7498 23.7675C36.9252 22.1466 37.4696 20.1671 39.0276 19.329C39.5442 19.0512 39.9222 18.6842 40.3378 18.3055C40.7171 17.9593 41.244 17.779 41.6984 17.5129C41.837 17.4316 41.9586 17.317 42.0752 17.2045C42.4713 16.8238 42.8164 16.3677 43.2649 16.0677C44.0456 15.5445 45.0088 15.7631 45.4813 16.5674C46.8814 18.9496 48.2563 21.3475 49.6053 23.7597C49.7419 24.0037 49.7115 24.4078 49.628 24.7006C48.9975 26.9071 48.3269 29.1013 47.6893 31.3059C47.5903 31.6481 47.5695 32.0203 47.5605 32.3795C47.5488 32.8487 47.5741 33.3204 47.6019 33.7896C47.6699 34.9309 47.308 35.9116 46.5364 36.7458C46.4549 36.8336 46.3843 36.9325 46.2782 37.0646C47.3087 37.9593 48.3282 38.8456 49.3484 39.7305C50.4766 40.7092 51.6087 41.6826 52.7325 42.6665C52.939 42.8468 53.1112 43.066 53.2995 43.2671C53.3008 43.4415 53.3008 43.6159 53.3008 43.7896ZM46.8116 28.7538C47.2517 27.2709 47.6705 25.8927 48.0576 24.5054C48.1042 24.3394 48.0142 24.1006 47.9197 23.934C46.7436 21.8661 45.5558 19.8053 44.3693 17.7439C44.2955 17.6164 44.2055 17.4979 44.1252 17.3782C43.164 17.9508 42.8772 18.9074 43.375 19.8665C43.887 20.853 44.3667 21.8642 44.9725 22.7901C45.5972 23.7453 45.7648 24.6719 45.2871 25.7202C45.214 25.8803 45.2172 26.1484 45.3033 26.2967C45.7622 27.0926 46.2594 27.8649 46.8116 28.7538ZM41.4317 19.3967C40.9663 19.8431 40.7534 20.471 40.9793 21.136C41.1942 21.7685 41.5981 22.3327 41.8648 22.9508C42.2266 23.7896 43.1387 23.1538 43.6009 23.6607C42.8837 22.2507 42.1664 20.8406 41.4317 19.3967ZM39.249 21.1991C38.9189 21.6397 38.7991 22.1986 39.0212 22.7315C39.3448 23.5078 39.7746 24.2392 40.1721 25.0149C40.811 24.2692 40.8019 24.2737 40.409 23.5176C40.0122 22.7524 39.6368 21.9754 39.249 21.1991Z" fill="white"/>
<path d="M9.40022 37.7634C10.3589 37.2663 10.6793 36.2519 10.1828 35.2979C9.57369 34.126 8.96134 32.9534 8.29332 31.816C7.93794 31.2102 7.81627 30.6402 8.11597 29.9979C8.41244 29.3622 8.3464 28.8033 7.89652 28.23C7.47124 27.6879 7.15212 27.0613 6.76762 26.4412C6.70483 26.5739 6.66471 26.6689 6.61616 26.76C6.41226 27.1459 6.10476 27.3294 5.6743 27.1882C5.21601 27.0379 5.0652 26.6794 5.16812 26.2369C5.28593 25.7293 5.41798 25.2205 5.60505 24.7357C5.9779 23.7714 6.07759 22.781 5.96755 21.7646C5.82126 20.4196 6.17145 19.2483 7.13012 18.2781C7.17672 18.2313 7.20778 18.1688 7.27121 18.077C6.17855 17.1257 5.09563 16.1809 4.01074 15.2374C2.81839 14.2002 1.62215 13.1675 0.43498 12.1244C0.0155229 11.7561 -0.0498428 11.3403 0.22138 10.9785C0.521732 10.5777 0.993601 10.5523 1.44672 10.9427C2.71027 12.0301 3.9667 13.1258 5.22507 14.2197C6.24718 15.1079 7.26797 15.9967 8.23699 16.8401C8.90631 16.4464 9.53357 16.0618 10.1757 15.7052C10.6728 15.4293 11.1253 15.5445 11.3422 15.9623C11.5499 16.3611 11.427 16.8472 10.9454 17.047C9.66433 17.5786 8.85066 18.6288 8.03958 19.6576C7.73146 20.048 7.53921 20.633 7.52562 21.136C7.4939 22.317 7.59745 23.502 7.6583 24.6849C7.66607 24.8333 7.71593 24.9953 7.79361 25.1209C8.79565 26.749 9.80545 28.3725 10.8159 29.996C10.8599 30.0669 10.924 30.1261 10.9732 30.1847C12.1021 29.7865 12.5656 28.4356 11.9662 27.2721C11.4651 26.2987 10.9253 25.3461 10.4126 24.3778C10.1272 23.839 10.1977 23.4252 10.7039 23.1851C11.9959 22.5728 12.44 21.4106 12.7436 20.1489C12.8245 19.8131 12.8336 19.4604 12.8782 19.1156C12.9449 18.5989 13.2886 18.2684 13.7197 18.3035C14.1631 18.3399 14.4596 18.6933 14.4253 19.2268C14.3023 21.1724 13.6997 22.9027 12.1053 24.2288C12.3908 24.7578 12.684 25.3025 13.0109 25.9083C13.7585 24.6277 14.3618 23.3412 14.7179 21.9611C15.0253 20.7684 15.2428 19.5509 15.461 18.3373C15.6746 17.1465 15.2629 16.1542 14.4221 15.3109C11.6127 12.494 8.80921 9.66995 6.00377 6.8485C5.88143 6.72552 5.74744 6.60969 5.64775 6.46914C5.38818 6.1054 5.4141 5.7397 5.73451 5.43387C6.03681 5.14561 6.38895 5.13389 6.72685 5.38507C6.86537 5.48788 6.98186 5.61997 7.1042 5.74295C9.7517 8.40303 12.3468 11.1184 15.0636 13.705C16.8029 15.3617 17.3485 17.2298 16.8999 19.5554C16.3704 22.3027 15.5069 24.9023 14.0181 27.2735C13.8304 27.5728 13.8563 27.7869 14.0142 28.0725C14.6292 29.182 15.25 30.2895 15.8183 31.423C16.6216 33.0244 16.0701 34.9778 14.5308 35.8198C14.0194 36.0996 13.6297 36.4484 13.2206 36.8388C12.8504 37.1915 12.317 37.3685 11.8639 37.6372C11.7131 37.7264 11.5823 37.8539 11.4535 37.9756C11.0541 38.3536 10.7059 38.8078 10.2547 39.1032C9.48827 39.6049 8.54254 39.3824 8.07972 38.5944C6.67052 36.1972 5.29434 33.7811 3.91686 31.3651C3.68901 30.9655 3.99779 29.6108 4.39783 29.4045C4.63604 29.2815 5.04254 29.2444 5.24903 29.372C5.45358 29.4982 5.66329 29.942 5.58821 30.1378C5.34482 30.7768 5.61993 31.231 5.91316 31.7334C6.99093 33.5794 8.04863 35.4372 9.11475 37.2904C9.20214 37.4414 9.29342 37.5871 9.40022 37.7634ZM12.1157 35.7586C12.5649 35.3292 12.807 34.7175 12.5779 34.046C12.361 33.4115 11.9636 32.8422 11.6995 32.2214C11.3409 31.3768 10.4411 31.9839 9.96599 31.5128C10.6754 32.9144 11.3849 34.316 12.1157 35.7586ZM13.3572 30.1151C13.1255 30.4255 12.9501 30.661 12.7837 30.8836C13.2944 31.9182 13.7987 32.9398 14.2991 33.9536C14.6609 33.4695 14.758 32.8747 14.4926 32.2845C14.1664 31.5596 13.7579 30.8725 13.3572 30.1151Z" fill="white"/>
<path d="M36.2157 7.7756C37.1297 6.71235 38.0339 5.66081 38.9376 4.60797C39.9338 3.44776 40.9145 2.27259 41.9372 1.13711C42.1295 0.923682 42.4978 0.738882 42.7709 0.757102C43.3885 0.798747 43.5989 1.55291 43.1593 2.07803C42.323 3.07751 41.466 4.06008 40.6174 5.0498C39.5435 6.3024 38.4696 7.55501 37.4637 8.72823C37.8689 9.43749 38.2586 10.0888 38.6165 10.7571C38.8606 11.2133 38.7188 11.6727 38.3168 11.877C37.9304 12.0735 37.4559 11.959 37.2701 11.5048C36.7659 10.2704 35.7593 9.49736 34.8227 8.65144C34.3197 8.19725 33.7481 7.97536 33.0691 8.00985C31.9615 8.06516 30.8527 8.09379 29.7458 8.15691C29.5341 8.16927 29.3056 8.24996 29.1231 8.36253C27.5896 9.31126 26.073 10.2873 24.5324 11.2243C24.1297 11.469 24.142 11.6662 24.4139 11.9889C25.0754 12.7737 26.139 12.9916 27.0983 12.4873C28.0641 11.9791 29.013 11.4384 29.9762 10.9244C30.4896 10.6504 30.9006 10.7174 31.1304 11.1963C31.8677 12.7314 33.262 13.1198 34.7463 13.3756C34.934 13.4081 35.1262 13.41 35.314 13.4393C35.7599 13.5083 35.9833 13.792 35.991 14.2286C35.9988 14.6425 35.6583 14.9932 35.213 14.9704C33.3021 14.8709 31.568 14.3399 30.2733 12.8062C30.23 12.7548 30.184 12.7047 30.1186 12.6311C29.582 12.922 29.0525 13.2096 28.4117 13.5571C29.013 13.8649 29.5361 14.1382 30.0649 14.3998C30.3128 14.5227 30.5769 14.6125 30.8242 14.7368C31.2728 14.962 31.4327 15.3595 31.2566 15.7721C31.0851 16.1736 30.6566 16.3753 30.2138 16.1658C29.1969 15.6856 28.1884 15.1832 27.2064 14.636C26.831 14.4264 26.5597 14.3874 26.1765 14.6099C25.1279 15.2183 24.0637 15.8046 22.982 16.3525C21.3683 17.1698 19.4471 16.6453 18.5939 15.1058C18.2949 14.5663 17.933 14.1388 17.5136 13.7055C17.1815 13.3632 17.0236 12.853 16.7763 12.4242C16.6883 12.2713 16.5769 12.1275 16.4559 11.9987C16.0791 11.5978 15.6254 11.2517 15.3263 10.8007C14.8078 10.0186 15.0324 9.04772 15.8319 8.57336C18.2023 7.16784 20.5864 5.78444 22.9853 4.42902C23.2274 4.29238 23.63 4.32621 23.9213 4.41015C26.1332 5.04524 28.334 5.72002 30.5439 6.36292C30.8682 6.45727 31.2204 6.47874 31.5609 6.4872C32.0107 6.49891 32.4619 6.47809 32.9111 6.44686C34.0659 6.36747 35.0576 6.72991 35.9017 7.51987C35.9891 7.60186 36.0875 7.67213 36.2157 7.7756ZM27.9501 7.23876C26.5435 6.81971 25.2412 6.41432 23.9265 6.05578C23.6811 5.98876 23.3407 6.03171 23.1193 6.15729C21.0712 7.31945 19.0386 8.51024 17.0029 9.69517C16.8747 9.77 16.7543 9.8585 16.6319 9.93919C17.1919 10.9035 18.1492 11.1989 19.1027 10.7005C20.1151 10.1715 21.1521 9.6737 22.1043 9.04772C23.0144 8.44972 23.8883 8.30982 24.8728 8.76532C25.0308 8.83819 25.2826 8.89155 25.4107 8.81672C26.2438 8.32804 27.0536 7.80227 27.9501 7.23876ZM18.6431 12.6513C19.0742 13.1127 19.6982 13.3307 20.3598 13.1068C20.9896 12.8934 21.5495 12.4821 22.1671 12.2219C23.0157 11.864 22.3645 10.9315 22.8843 10.4682C21.4835 11.1892 20.0827 11.9102 18.6431 12.6513ZM20.4336 14.8435C20.8712 15.1754 21.4259 15.2951 21.9561 15.0719C22.7277 14.7472 23.4552 14.3165 24.2275 13.9182C23.4869 13.274 23.4921 13.2838 22.74 13.6781C21.9787 14.077 21.2058 14.4544 20.4336 14.8435Z" fill="white"/>
<path d="M26.7176 34.3633C28.6991 32.3311 30.7355 30.3875 32.5927 28.2837C33.7462 26.9765 33.4225 24.8942 32.1486 23.6865C30.8747 22.4794 28.9153 22.3962 27.5313 23.4906C26.7028 24.1465 26.6665 24.1459 25.814 23.4796C24.3919 22.3669 22.3923 22.4918 21.1243 23.7724C19.8763 25.0328 19.7558 27.0279 20.8427 28.4477C20.9165 28.544 21.0045 28.6319 21.0654 28.736C21.2848 29.1127 21.2634 29.4719 20.9327 29.7725C20.6142 30.0621 20.1805 30.0406 19.8633 29.699C19.1454 28.9247 18.6994 28.0007 18.5888 26.9537C18.3661 24.8467 19.104 23.1275 20.8847 21.9797C22.6603 20.8351 24.5149 20.8664 26.3344 21.9394C26.5863 22.0877 26.7474 22.1203 27.0161 21.9504C29.204 20.5716 31.9874 21.018 33.6368 22.9896C35.2686 24.9398 35.2401 27.8347 33.4639 29.7205C31.6301 31.668 29.716 33.5401 27.8174 35.4252C27.1319 36.1058 26.194 36.07 25.4949 35.3803C24.5304 34.4283 23.5789 33.4633 22.6267 32.499C22.193 32.0598 22.1457 31.6082 22.4817 31.262C22.8183 30.9158 23.283 30.951 23.7115 31.3772C24.5744 32.2342 25.4282 33.1002 26.2879 33.9611C26.407 34.0815 26.5351 34.1934 26.7176 34.3633Z" fill="white"/>
<path d="M36.2436 17.6482C35.6357 17.5519 34.7955 17.4381 33.9644 17.2786C33.4711 17.1836 33.2452 16.8192 33.321 16.3683C33.3915 15.9506 33.7158 15.7046 34.1994 15.7573C34.7664 15.8191 35.3309 15.9109 35.8934 16.0078C37.1226 16.2199 38.1324 15.8185 38.9979 14.9452C41.7237 12.1947 44.4579 9.45197 47.1883 6.706C47.7955 6.09564 48.211 6.00715 48.5994 6.40408C48.9813 6.79515 48.8881 7.21225 48.2803 7.82326C45.5493 10.5692 42.8125 13.3087 40.0905 16.0631C39.0879 17.0776 37.8994 17.6164 36.2436 17.6482Z" fill="white"/>
</svg>
